<svg xmlns="http://www.w3.org/2000/svg" xml:space="preserve" width="250mm" height="250mm" viewBox="0 0 250 250"><g stroke="#000" stroke-linecap="round" stroke-linejoin="round" style="fill:none;stroke:#dbdee3;stroke-width:8.09317;stroke-dasharray:none"><path d="M418.287 171.693h25.319c5.773 0 10.452-4.724 10.452-10.552v-65.47c0-5.828-4.68-10.552-10.452-10.552h-167.24c-5.773 0-10.453 4.724-10.453 10.552v65.47c0 5.828 4.68 10.552 10.453 10.552h25.724M297.27 67.58c0-5.828 4.68-10.552 10.453-10.552h104.525c5.773 0 10.453 4.724 10.453 10.551v17.169H297.27Z" style="fill:none;fill-opacity:1;stroke:#dbdee3;stroke-width:8.09317;stroke-dasharray:none" transform="matrix(1.22273 0 0 1.22161 -315.164 -59.72)"/></g><g stroke="#000" stroke-linecap="round" stroke-linejoin="round"><path d="M183.613 155.475h25.318c5.773 0 10.453-4.725 10.453-10.552v-65.47c0-5.828-4.68-10.552-10.453-10.552H41.691c-5.773 0-10.452 4.724-10.452 10.552v65.47c0 5.827 4.68 10.552 10.452 10.552h25.725M62.596 51.36c0-5.827 4.68-10.551 10.453-10.551h104.525c5.773 0 10.452 4.724 10.452 10.552v17.168H62.596Z" style="fill:#dbdee3;fill-opacity:1;stroke:#000;stroke-width:4.8559;stroke-dasharray:none" transform="matrix(1.22273 0 0 1.22161 -28.221 -39.908)"/></g><g style="fill:#000;stroke:#000"><path d="M92.16 40.96h61.44v20.48H92.16z" style="stroke:#000" transform="matrix(.38342 0 0 .38671 31.448 71.396)"/></g><g style="fill:#000;stroke:#000"><path d="M378.88 40.96h20.48v20.48h-20.48z" style="stroke:#000" transform="matrix(.38342 0 0 .38671 31.448 71.396)"/></g><g style="fill:#000;stroke:#000"><path d="M337.92 40.96h20.48v20.48h-20.48z" style="stroke:#000" transform="matrix(.38342 0 0 .38671 31.448 71.396)"/></g><g style="fill:#000;stroke:#000"><path d="M92.16 163.84h61.44v20.48H92.16z" style="stroke:#000" transform="matrix(.38342 0 0 .38671 31.448 71.396)"/></g><path d="M378.88 163.84h20.48v20.48h-20.48z" style="fill:#a70202;fill-opacity:1;stroke:none;stroke-opacity:1" transform="matrix(.38342 0 0 .38671 31.448 71.396)"/><g style="fill:#000;stroke:#000"><path d="M337.92 163.84h20.48v20.48h-20.48z" style="fill:#056101;fill-opacity:1;stroke:none" transform="matrix(.38342 0 0 .38671 31.448 71.396)"/></g><g style="fill:#000;stroke:#000;stroke-width:0;stroke-dasharray:none"><g style="stroke:#000;stroke-width:0;stroke-dasharray:none"><path d="M447.802 302.994c-19.029 0-34.926 13.104-39.506 30.72h-32.174v-71.151h40.96v-20.48h-40.96v-20.48h61.44v-102.4h-61.44v-20.48h61.44v-102.4H48.442v102.4h61.44v20.48h-61.44v102.4h61.44v20.48h-40.96v20.48h40.96v71.151H77.708c-4.58-17.616-20.477-30.72-39.506-30.72-22.585 0-40.96 18.375-40.96 40.96s18.375 40.96 40.96 40.96c19.03 0 34.926-13.104 39.506-30.72h52.654v-91.631h51.2v103.325c-17.616 4.58-30.72 20.477-30.72 39.506 0 22.585 18.375 40.96 40.96 40.96s40.96-18.375 40.96-40.96c0-19.029-13.104-34.926-30.72-39.506V262.563h81.92v103.325c-17.616 4.58-30.72 20.477-30.72 39.506 0 22.585 18.375 40.96 40.96 40.96s40.96-18.375 40.96-40.96c0-19.029-13.104-34.926-30.72-39.506V262.563h51.2v91.631h52.654c4.58 17.616 20.477 30.72 39.506 30.72 22.585 0 40.96-18.375 40.96-40.96s-18.375-40.96-40.96-40.96zm-409.6 61.44c-11.295 0-20.48-9.185-20.48-20.48s9.185-20.48 20.48-20.48 20.48 9.185 20.48 20.48-9.185 20.48-20.48 20.48zm30.72-286.191v-61.44h348.16v61.44zm286.72 20.48v20.48h-225.28v-20.48Zm-286.72 102.4v-61.44h348.16v61.44zm143.36 204.271c0 11.295-9.185 20.48-20.48 20.48s-20.48-9.185-20.48-20.48 9.185-20.48 20.48-20.48 20.48 9.185 20.48 20.48zm102.4 0c0 11.295-9.185 20.48-20.48 20.48s-20.48-9.185-20.48-20.48 9.185-20.48 20.48-20.48 20.48 9.185 20.48 20.48zm40.96-163.311h-225.28v-20.48h225.28zm92.16 122.351c-11.295 0-20.48-9.185-20.48-20.48s9.185-20.48 20.48-20.48 20.48 9.185 20.48 20.48-9.185 20.48-20.48 20.48z" style="stroke:#dbdee3;stroke-width:5.1375;stroke-linecap:round;stroke-linejoin:round;stroke-dasharray:none;stroke-opacity:1" transform="matrix(.38342 0 0 .38671 31.448 71.396)"/></g><path stroke="none" d="M38.603 322.087c-11.897 0-21.572 9.675-21.572 21.572 0 11.896 9.675 21.571 21.572 21.571 11.897 0 21.571-9.675 21.571-21.571 0-11.897-9.674-21.572-21.57-21.572z" style="fill:#caf;stroke:#000;stroke-width:0;stroke-dasharray:none" transform="matrix(.38342 0 0 .38671 31.448 71.396)"/><path stroke="none" d="M191.351 383.367c-11.897 0-21.572 9.675-21.572 21.571 0 11.897 9.675 21.572 21.572 21.572 11.897 0 21.571-9.675 21.571-21.572 0-11.896-9.674-21.571-21.57-21.571z" style="fill:#afc6e9;stroke:#000;stroke-width:0;stroke-dasharray:none" transform="matrix(.38342 0 0 .38671 31.448 71.396)"/><path stroke="none" d="M294.248 384.47c-11.897 0-21.572 9.675-21.572 21.571 0 11.897 9.675 21.572 21.572 21.572 11.897 0 21.571-9.675 21.571-21.572 0-11.896-9.674-21.571-21.57-21.571z" style="fill:#d7e3f4;stroke:#000;stroke-width:0;stroke-dasharray:none" transform="matrix(.38342 0 0 .38671 31.448 71.396)"/><path stroke="none" d="M448.28 322.727c-11.896 0-21.572 9.675-21.572 21.571 0 11.897 9.676 21.572 21.573 21.572s21.57-9.675 21.57-21.572c0-11.896-9.673-21.571-21.57-21.571z" style="fill:#c8b7be;stroke:#000;stroke-width:0;stroke-dasharray:none" transform="matrix(.38342 0 0 .38671 31.448 71.396)"/></g></svg>